<svg xmlns="http://www.w3.org/2000/svg" version="1.1" xmlns:xlink="http://www.w3.org/1999/xlink" xmlns:svgjs="http://svgjs.com/svgjs" width="1440" height="560" preserveAspectRatio="none" viewBox="0 0 1440 560"><g mask="url(&quot;#SvgjsMask4768&quot;)" fill="none"><rect width="1440" height="560" x="0" y="0" fill="rgba(215, 216, 217, 1)"></rect><use xlink:href="#SvgjsG4789" transform="translate(0, 0)" fill="rgba(195, 198, 203, 0.95)"></use><use xlink:href="#SvgjsG4789" transform="translate(0, 384)" fill="rgba(195, 198, 203, 0.95)"></use><use xlink:href="#SvgjsG4789" transform="translate(384, 0)" fill="rgba(195, 198, 203, 0.95)"></use><use xlink:href="#SvgjsG4789" transform="translate(384, 384)" fill="rgba(195, 198, 203, 0.95)"></use><use xlink:href="#SvgjsG4789" transform="translate(768, 0)" fill="rgba(195, 198, 203, 0.95)"></use><use xlink:href="#SvgjsG4789" transform="translate(768, 384)" fill="rgba(195, 198, 203, 0.95)"></use><use xlink:href="#SvgjsG4789" transform="translate(1152, 0)" fill="rgba(195, 198, 203, 0.95)"></use><use xlink:href="#SvgjsG4789" transform="translate(1152, 384)" fill="rgba(195, 198, 203, 0.95)"></use></g><defs><mask id="SvgjsMask4768"><rect width="1440" height="560" fill="#ffffff"></rect></mask><g id="SvgjsG4782"><path d="M3.474 10.969C3.474 7.665 8.077 0.361 8.077 0.361s4.602 7.305 4.602 10.608c0 2.247-1.506 4.771-4.602 4.771-3.095 0-4.603-2.524-4.603-4.771z" fill-rule="evenodd"></path></g><g id="SvgjsG4775"><path d="M7.713 15.485C3.459 15.485 0 12.025 0 7.768 0 3.513 3.459 0.051 7.713 0.051S15.432 3.513 15.432 7.768c0 4.257-3.465 7.716-7.719 7.717z m0-1.91c3.201 0 5.81-2.604 5.81-5.809 0-3.199-2.61-5.807-5.81-5.807-3.202 0-5.804 2.609-5.804 5.807-0.001 3.206 2.602 5.809 5.804 5.809z"></path><path d="M7.753 8.787a0.574 0.574 0 0 1-0.554-0.042 0.578 0.578 0 0 1-0.259-0.399L6.931 3.862a0.58 0.58 0 0 1 1.162 0v3.478l2.975-1.4a0.578 0.578 0 0 1 0.773 0.275c0.138 0.292 0.011 0.637-0.276 0.774l-3.81 1.798z"></path></g><g id="SvgjsG4783"><path d="M11.986 8.245a46.749 46.749 0 0 1-0.521-0.411c-0.146-0.116-0.293-0.233-0.44-0.348-0.88-0.688-1.797-1.316-2.816-1.407A2.815 2.815 0 0 0 7.954 6.067c-0.086 0-0.171 0.011-0.255 0.018-1.022 0.093-1.942 0.717-2.826 1.408l0.093 0.073c0.108 0.085 0.213 0.168 0.32 0.252C6.165 7.137 7.021 6.576 7.954 6.576c0.93 0 1.784 0.558 2.66 1.236a35.098 35.098 0 0 1 0.535 0.421c0.142 0.113 0.283 0.226 0.426 0.338C12.532 9.32 13.531 10 14.658 10c0.437 0 0.854-0.104 1.257-0.273v-0.557c-0.409 0.197-0.825 0.32-1.257 0.32-0.934 0-1.792-0.563-2.672-1.245z"></path><path d="M11.574 7.496c0.029 0.023 0.059 0.046 0.088 0.07 0.109 0.087 0.216 0.17 0.325 0.256 0.318-0.246 0.635-0.476 0.952-0.67v1.37c0.17 0.111 0.34 0.214 0.51 0.301V6.878c0.315-0.147 0.634-0.248 0.96-0.283v2.537c0.078 0.01 0.157 0.018 0.237 0.018 0.091 0 0.183-0.009 0.273-0.021V6.592c0.34 0.037 0.67 0.144 0.996 0.3V6.336C15.514 6.17 15.099 6.067 14.664 6.067c-1.128 0-2.13 0.68-3.09 1.429z m-7.248 1.08c-0.034-0.027-0.068-0.053-0.102-0.08-0.104-0.083-0.207-0.162-0.31-0.245-0.877 0.678-1.733 1.238-2.665 1.238C0.82 9.49 0.407 9.36 0 9.152v0.562C0.401 9.891 0.815 10 1.249 10c1.124 0 2.122-0.677 3.077-1.423z"></path><path d="M0.989 9.133c0.084 0.011 0.17 0.019 0.254 0.02 0.086 0 0.171-0.008 0.256-0.02V6.592c0.329 0.035 0.65 0.136 0.967 0.285-0.002 0.012-0.007 0.023-0.007 0.036v1.903a5.818 5.818 0 0 0 0.51-0.303V7.152c0.487 0.3 0.971 0.684 1.467 1.08C5.525 9.101 6.652 10 7.948 10c1.123 0 2.121-0.675 3.078-1.42l-0.106-0.084c-0.103-0.082-0.205-0.161-0.306-0.242-0.313 0.242-0.622 0.466-0.934 0.658V7.564A5.816 5.816 0 0 0 9.17 7.261v1.893c0 0.01 0.004 0.019 0.005 0.029-0.316 0.149-0.637 0.252-0.965 0.288V6.937a1.97 1.97 0 0 0-0.267-0.02c-0.082 0-0.163 0.008-0.243 0.017v2.541c-0.33-0.035-0.652-0.136-0.969-0.283 0.002-0.013 0.006-0.024 0.006-0.039V7.248a5.629 5.629 0 0 0-0.51 0.302v1.368c-0.49-0.299-0.976-0.686-1.474-1.083C3.666 6.966 2.539 6.067 1.243 6.067c-0.432 0-0.844 0.096-1.243 0.251v0.55c0.324-0.144 0.652-0.244 0.989-0.278V9.133z"></path></g><g id="SvgjsG4772"><path d="M2.524 8.637H0.014V7.308h2.51v1.329zM3.656 4.576L1.884 2.804l0.935-0.935 1.772 1.772-0.935 0.935z m0 6.817l0.935 0.935-1.772 1.773-0.934-0.936 1.771-1.772z m4.997-8.884h-1.33V-0.002h1.33v2.511z m-1.33 10.952h1.33v2.51h-1.33v-2.509zM12.344 4.576l-0.96-0.935 1.796-1.772 0.935 0.935-1.772 1.772z m0 6.792l1.771 1.797-0.935 0.936-1.771-1.774 0.936-0.96z m3.643-4.06v1.329h-2.51V7.308h2.509z"></path><path d="M3.702 7.984a4.184 4.184 0 1 0 8.368 0 4.184 4.184 0 1 0-8.368 0"></path></g><g id="SvgjsG4779"><path d="M15.233 9.431c0.295 0 0.569-0.239 0.61-0.532 0 0 0.056-0.411 0.056-0.899s-0.056-0.899-0.056-0.899c-0.041-0.292-0.315-0.531-0.61-0.53h-1.524c-0.295 0-0.602-0.188-0.681-0.418s-0.188-0.967 0.021-1.176l1.078-1.077c0.209-0.209 0.225-0.565 0.036-0.792l-1.268-1.268c-0.227-0.189-0.583-0.173-0.792 0.036l-1.078 1.077c-0.208 0.209-0.556 0.293-0.772 0.187s-0.822-0.552-0.821-0.847V0.767c0-0.295-0.239-0.569-0.531-0.61 0 0-0.411-0.057-0.9-0.056s-0.899 0.057-0.899 0.056c-0.293 0.04-0.532 0.315-0.532 0.61v1.524c0 0.295-0.188 0.601-0.418 0.681s-0.967 0.188-1.176-0.021l-1.078-1.078C3.689 1.665 3.333 1.649 3.107 1.837l-1.268 1.268c-0.189 0.227-0.173 0.583 0.036 0.792l1.077 1.078c0.209 0.209 0.293 0.556 0.187 0.772s-0.552 0.822-0.847 0.822H0.767c-0.295 0-0.569 0.239-0.61 0.531 0 0-0.057 0.411-0.056 0.899s0.057 0.899 0.056 0.9c0.04 0.293 0.315 0.532 0.61 0.532h1.525c0.295 0 0.601 0.188 0.681 0.417 0.079 0.23 0.188 0.967-0.02 1.176l-1.078 1.077C1.667 12.311 1.651 12.667 1.84 12.893l1.267 1.268c0.227 0.189 0.583 0.173 0.792-0.036l1.077-1.077c0.209-0.208 0.556-0.292 0.772-0.187s0.821 0.553 0.822 0.848v1.524c0 0.295 0.239 0.569 0.532 0.61 0 0 0.411 0.057 0.899 0.057s0.899-0.056 0.899-0.057c0.293-0.04 0.531-0.315 0.532-0.609v-1.524c0-0.295 0.188-0.602 0.418-0.681 0.23-0.079 0.967-0.188 1.176 0.021l1.077 1.077c0.209 0.209 0.565 0.225 0.792 0.036l1.268-1.267c0.189-0.227 0.173-0.583-0.036-0.792l-1.078-1.077c-0.209-0.209-0.293-0.557-0.186-0.773 0.106-0.216 0.552-0.822 0.847-0.822h1.525zM8 10.892c-1.597 0-2.891-1.294-2.891-2.892 0-1.596 1.295-2.891 2.891-2.891S10.892 6.404 10.892 8 9.597 10.892 8 10.892z"></path></g><g id="SvgjsG4771"><path d="M8 1.076C3.594 1.076 0.023 3.767 0.023 7.088c0 1.625 0.857 3.099 2.248 4.181l0.003 3.607 4.168-1.892c0.504 0.075 1.025 0.115 1.558 0.116 4.406 0 7.976-2.692 7.976-6.012C15.976 3.767 12.406 1.076 8 1.076z" fill-rule="evenodd"></path></g><g id="SvgjsG4776"><path d="M8 2.022C3.815 2.022 0.422 4.579 0.422 7.733c0 1.544 0.814 2.944 2.135 3.972l0.003 3.427 3.961-1.798c0.479 0.071 0.973 0.11 1.48 0.11 4.185 0 7.578-2.557 7.578-5.711 0-3.154-3.392-5.711-7.577-5.711zM4.81 8.933a1.067 1.067 0 1 1 0-2.133 1.067 1.067 0 0 1 0 2.133z m3.186 0a1.067 1.067 0 1 1 0-2.133 1.067 1.067 0 0 1 0 2.133z m3.143 0c-0.589 0-1.067-0.478-1.067-1.066s0.477-1.067 1.067-1.067 1.067 0.478 1.067 1.067a1.067 1.067 0 0 1-1.067 1.066z"></path></g><g id="SvgjsG4778"><path d="M1.316 13.81h14.019V3.175H1.316v10.635z m12.302-9.643L9.143 8.635c-0.457 0.459-1.269 0.448-1.735-0.018l-4.444-4.45h10.648z m-11.31 0.693l3.626 3.638-3.637 3.644 0.007-7.278z m0.654 7.97l3.641-3.635 0.156 0.149c0.86 0.818 2.228 0.818 3.049 0l0.156-0.156 3.663 3.644h-10.667z m11.353-0.693L10.677 8.501 14.311 4.862V12.142z" fill-rule="evenodd"></path></g><g id="SvgjsG4780"><path d="M8 14.66l5.904-5.908c1.836-1.836 1.8-4.512 0.132-6.174A4.268 4.268 0 0 0 8 2.58a4.264 4.264 0 0 0-6.03-0.02C0.3 4.24 0.26 6.92 2.1 8.744L8 14.66z"></path></g><g id="SvgjsG4777"><path d="M7.867 14.689a9.978 9.978 0 0 0-1.863-6.862A9.989 9.989 0 0 0 0.059 3.924 9.973 9.973 0 0 0 1.92 10.788a9.979 9.979 0 0 0 5.947 3.902z m-0.971-7.508a11.292 11.292 0 0 1 1 1.675 11.329 11.329 0 0 1 0.996-1.675 11.095 11.095 0 0 1 1.477-1.65A9.969 9.969 0 0 0 7.914 0a9.977 9.977 0 0 0-2.456 5.564 11.227 11.227 0 0 1 1.438 1.617z m8.833-3.258a9.988 9.988 0 0 0-5.945 3.904 10.058 10.058 0 0 0-1.314 2.479 11.075 11.075 0 0 1 0.513 4.081 9.966 9.966 0 0 0 4.886-3.599A9.973 9.973 0 0 0 15.729 3.924z" fill-rule="evenodd"></path></g><g id="SvgjsG4769"><path d="M8.067-0.016c-3.304 0-5.982 2.678-5.982 5.982 0 5.588 5.982 10.054 5.982 10.054s5.982-4.466 5.982-10.054c0-3.304-2.678-5.982-5.982-5.982z m0 8.625c-1.46 0-2.643-1.183-2.643-2.643S6.607 3.323 8.067 3.323s2.643 1.183 2.643 2.643S9.527 8.609 8.067 8.609z"></path></g><g id="SvgjsG4785"><path d="M2.396 6.756V16h3.56V10.315H10.085V16h3.559V6.756z"></path><path d="M0.064 8L8.02 0l7.956 8z"></path></g><g id="SvgjsG4786"><path d="M8.43 3.58a1.188 1.188 0 0 0 0-2.372 1.186 1.186 0 0 0 0 2.372"></path><path d="M9.314 3.844h-1.73L4.634 0.894A0.6 0.6 0 0 0 3.78 0.874a0.6 0.6 0 0 0-0.024 0.856l3.08 3.086v10.228a0.664 0.664 0 0 0 1.334 0V9.496h0.54v5.548c0 0.37 0.304 0.668 0.67 0.668 0.368 0 0.664-0.3 0.664-0.668L10.04 4.816 13.12 1.73a0.6 0.6 0 0 0-0.02-0.854 0.6 0.6 0 0 0-0.856 0.02L9.314 3.84z"></path></g><g id="SvgjsG4773"><path d="M9.164 2.888c0.912 0 1.281 0.751 1.419 1.165l1.12 3.681c0.223 0.792-0.784 1.12-1.024 0.348l-1.007-3.38h-0.294L11.125 10.715H9.516v4.687c0 0.799-1.202 0.795-1.203 0V10.684h-0.49L7.824 15.395c0 0.806-1.207 0.806-1.207 0l0-4.68H5.002l1.733-6.013h-0.271l-1.008 3.392c-0.24 0.739-1.256 0.436-1.023-0.356L5.552 4.053c0.12-0.42 0.487-1.165 1.407-1.165h2.205z"></path><path d="M6.762 1.306a1.306 1.306 0 1 0 2.612 0 1.306 1.306 0 1 0-2.612 0"></path></g><g id="SvgjsG4770"><path d="M12.872 14.056H9.025v-5.485L15.968 0H0l7.07 8.528v5.528h-3.773c-1.304 0.003-1.304 1.944 0 1.944H12.872c1.296 0 1.285-1.942 0-1.944zM8.021 4.809c-0.001-0.682 0.553-1.236 1.237-1.237 0.684 0 1.239 0.555 1.236 1.237 0.003 0.687-0.552 1.241-1.236 1.236-0.684 0.004-1.238-0.55-1.237-1.236z"></path></g><g id="SvgjsG4788"><path d="M9.412 5.113c1.273 0 2.378 0.701 2.988 1.734l3.596 0.004v-1.949c0-0.725-0.584-1.314-1.299-1.314H1.295C0.578 3.588 0 4.176 0 4.902l0.004 1.932 6.418 0.005c0.614-1.029 1.715-1.725 2.99-1.725M3.361 2.97h-1.192l-0.138 0.434h1.429l-0.099-0.434zM14.11 2.738h-1.587L12.242 3.408H14.368l-0.258-0.67zM8.662 3.177h-1.366V2.508h1.366v0.669zM9.914 2.24h-3.857l-0.795 1.176h5.38L9.914 2.24z m2.672 4.955c0.199 0.443 0.316 0.93 0.316 1.449 0 1.949-1.563 3.531-3.49 3.531-1.93 0-3.493-1.582-3.493-3.531 0-0.519 0.116-1.006 0.316-1.451H0V12.514c0 0.721 0.577 1.309 1.295 1.309h13.401c0.716 0 1.299-0.588 1.3-1.309L16 7.195H12.586z"></path><path d="M11.315 7.484a1.717 1.717 0 0 0-0.199-0.278c-0.408-0.496-1.018-0.822-1.704-0.823-0.69 0-1.299 0.324-1.707 0.818-0.075 0.09-0.144 0.182-0.203 0.283-0.205 0.34-0.33 0.734-0.329 1.16 0 1.246 1.002 2.258 2.237 2.258 1.23 0 2.232-1.013 2.232-2.259 0-0.427-0.122-0.819-0.329-1.16"></path></g><g id="SvgjsG4787"><path d="M3.044 12.188V8.93c0-2.836 2.475-5.244 5.463-5.245 3.022-0.004 5.465 2.352 5.465 5.245v3.258h1.351V8.93C15.332 5.276 12.27 2.325 8.51 2.325 4.777 2.325 1.689 5.333 1.689 8.93v3.258h1.355z"></path><path d="M5.463 14.702l-1.781 0.006V9.593h1.785c0.921 2.372 0 5.111 0 5.111m6.049-5.109H13.298V14.702l-1.783 0.006c-0.921-2.373 0-5.113 0-5.113"></path></g><g id="SvgjsG4774"><path d="M15.98 13.856L11.694 9.568a6.304 6.304 0 1 0-5.388 3.04 6.26 6.26 0 0 0 3.26-0.914l4.29 4.292L15.98 13.856zM2.406 6.308a3.908 3.908 0 0 1 3.9-3.9 3.906 3.906 0 0 1 3.9 3.9 3.9 3.9 0 0 1-7.8 0z"></path></g><g id="SvgjsG4781"><path d="M6.846 8.046l0.633 0.934h1.178l0.544-0.934-0.573-0.995h-1.181l-0.601 0.995zM7.331 15.562V13.449l-1.181 0.664-0.601-0.345V13.024l1.751-0.995V10.64l-1.271 0.816v-1.471l-1.214 0.7v1.994l-0.664 0.412-0.561-0.372V11.382L1.747 12.422 0.96 12.091V11.248l1.934-1.058-1.21-0.608v-0.771l0.687-0.376 1.735 1.022 1.206-0.696-0.03-0.022-1.232-0.707 1.197-0.742-1.201-0.696L2.311 7.614l-0.651-0.324v-0.769l1.174-0.66L0.96 4.844v-0.844l0.72-0.371 1.847 1.067v-1.36l0.557-0.375 0.682 0.393-0.004 2.035 1.241 0.709-0.005-1.438 1.301 0.7v-1.388L5.549 2.974v-0.738l0.601-0.348 1.181 0.664V0.443L8.006 0l0.682 0.443v2.109l1.224-0.678 0.615 0.407v0.664L8.715 3.972v1.388l1.239-0.755v1.511l1.277-0.696v-2.176l0.615-0.286 0.646 0.286v1.392l1.901-1.027 0.664 0.405v0.787l-1.856 1.055 1.161 0.651v0.751L13.76 7.592l-1.782-1.053-1.232 0.782 1.192 0.743-1.228 0.706 1.268 0.664L13.76 8.439l0.572 0.405v0.718L13.214 10.19l1.781 1.058v0.83l-0.754 0.344-1.749-0.995v1.317l-0.628 0.351-0.615-0.351V10.745l-1.295-0.737v1.388L8.715 10.64v1.389L10.466 13.024v0.787l-0.605 0.302-1.173-0.664v2.113L8.006 16l-0.675-0.438z"></path></g><g id="SvgjsG4784"><path d="M15.02 9.49l-0.733-1.271-2.086 1.205L9.733 8l2.468-1.424 2.087 1.205 0.733-1.271-1.354-0.781 1.68-0.97-0.867-1.501-1.679 0.97v-1.563h-1.467v2.409L8.867 6.499V3.65l2.087-1.205-0.734-1.27L8.867 1.956V0.018h-1.734v1.939L5.78 1.175l-0.733 1.27 2.086 1.205V6.499L4.666 5.074V2.665h-1.466v1.562l-1.679-0.969-0.867 1.501 1.679 0.97-1.354 0.781 0.734 1.27 2.087-1.205L6.267 8 3.8 9.424l-2.087-1.205-0.733 1.271 1.353 0.781-1.679 0.969 0.867 1.502 1.679-0.97v1.564h1.466V10.925L7.133 9.501v2.849l-2.086 1.205 0.733 1.27 1.353-0.782v1.938h1.734v-1.938l1.353 0.782 0.733-1.27-2.086-1.205v-2.849L11.334 10.925v2.41h1.467V11.772l1.679 0.969 0.867-1.501-1.68-0.969z"></path><path d="M-12.034 8v7.981"></path><path d="M-12.034 12.696l2.586 1.493"></path><path d="M-12.034 8V0.018"></path><path d="M-12.034 3.304l-2.587-1.494m2.587 1.494l2.587-1.494m-2.587 10.886l-2.587 1.493"></path><path d="M-12.034 8L-18.947 11.991"></path><path d="M-16.101 10.348v2.988"></path><path d="M-12.034 8l6.912-3.991"></path><path d="M-7.967 5.652V2.665m0 2.987l2.587 1.493m-10.721 3.203l-2.587-1.493"></path><path d="M-12.034 8L-18.947 4.009"></path><path d="M-16.101 5.652l-2.587 1.493"></path><path d="M-12.034 8l6.912 3.991"></path><path d="M-7.967 10.348l2.587-1.493m-2.587 1.493v2.987m-8.134-7.683V2.665"></path></g><g id="SvgjsG4789"><use xlink:href="#SvgjsG4769" transform="translate(0, 0) scale(0.6)" fill="rgba(195, 198, 203, 0.95)"></use><use xlink:href="#SvgjsG4770" transform="translate(0, 38.4) scale(0.6)" fill="rgba(195, 198, 203, 0.95)"></use><use xlink:href="#SvgjsG4771" transform="translate(0, 76.8) scale(0.6)" fill="rgba(195, 198, 203, 0.95)"></use><use xlink:href="#SvgjsG4772" transform="translate(0, 115.19999999999999) scale(0.6)" fill="rgba(195, 198, 203, 0.95)"></use><use xlink:href="#SvgjsG4770" transform="translate(0, 153.6) scale(0.6)" fill="rgba(195, 198, 203, 0.95)"></use><use xlink:href="#SvgjsG4773" transform="translate(0, 192) scale(0.6)" fill="rgba(195, 198, 203, 0.95)"></use><use xlink:href="#SvgjsG4774" transform="translate(0, 230.39999999999998) scale(0.6)" fill="rgba(195, 198, 203, 0.95)"></use><use xlink:href="#SvgjsG4774" transform="translate(0, 268.8) scale(0.6)" fill="rgba(195, 198, 203, 0.95)"></use><use xlink:href="#SvgjsG4770" transform="translate(0, 307.2) scale(0.6)" fill="rgba(195, 198, 203, 0.95)"></use><use xlink:href="#SvgjsG4775" transform="translate(0, 345.59999999999997) scale(0.6)" fill="rgba(195, 198, 203, 0.95)"></use><use xlink:href="#SvgjsG4776" transform="translate(38.4, 0) scale(0.6)" fill="rgba(195, 198, 203, 0.95)"></use><use xlink:href="#SvgjsG4776" transform="translate(38.4, 38.4) scale(0.6)" fill="rgba(195, 198, 203, 0.95)"></use><use xlink:href="#SvgjsG4772" transform="translate(38.4, 76.8) scale(0.6)" fill="rgba(195, 198, 203, 0.95)"></use><use xlink:href="#SvgjsG4770" transform="translate(38.4, 115.19999999999999) scale(0.6)" fill="rgba(195, 198, 203, 0.95)"></use><use xlink:href="#SvgjsG4777" transform="translate(38.4, 153.6) scale(0.6)" fill="rgba(195, 198, 203, 0.95)"></use><use xlink:href="#SvgjsG4778" transform="translate(38.4, 192) scale(0.6)" fill="rgba(195, 198, 203, 0.95)"></use><use xlink:href="#SvgjsG4779" transform="translate(38.4, 230.39999999999998) scale(0.6)" fill="rgba(195, 198, 203, 0.95)"></use><use xlink:href="#SvgjsG4780" transform="translate(38.4, 268.8) scale(0.6)" fill="rgba(195, 198, 203, 0.95)"></use><use xlink:href="#SvgjsG4775" transform="translate(38.4, 307.2) scale(0.6)" fill="rgba(195, 198, 203, 0.95)"></use><use xlink:href="#SvgjsG4781" transform="translate(38.4, 345.59999999999997) scale(0.6)" fill="rgba(195, 198, 203, 0.95)"></use><use xlink:href="#SvgjsG4776" transform="translate(76.8, 0) scale(0.6)" fill="rgba(195, 198, 203, 0.95)"></use><use xlink:href="#SvgjsG4774" transform="translate(76.8, 38.4) scale(0.6)" fill="rgba(195, 198, 203, 0.95)"></use><use xlink:href="#SvgjsG4779" transform="translate(76.8, 76.8) scale(0.6)" fill="rgba(195, 198, 203, 0.95)"></use><use xlink:href="#SvgjsG4782" transform="translate(76.8, 115.19999999999999) scale(0.6)" fill="rgba(195, 198, 203, 0.95)"></use><use xlink:href="#SvgjsG4774" transform="translate(76.8, 153.6) scale(0.6)" fill="rgba(195, 198, 203, 0.95)"></use><use xlink:href="#SvgjsG4783" transform="translate(76.8, 192) scale(0.6)" fill="rgba(195, 198, 203, 0.95)"></use><use xlink:href="#SvgjsG4772" transform="translate(76.8, 230.39999999999998) scale(0.6)" fill="rgba(195, 198, 203, 0.95)"></use><use xlink:href="#SvgjsG4784" transform="translate(76.8, 268.8) scale(0.6)" fill="rgba(195, 198, 203, 0.95)"></use><use xlink:href="#SvgjsG4784" transform="translate(76.8, 307.2) scale(0.6)" fill="rgba(195, 198, 203, 0.95)"></use><use xlink:href="#SvgjsG4773" transform="translate(76.8, 345.59999999999997) scale(0.6)" fill="rgba(195, 198, 203, 0.95)"></use><use xlink:href="#SvgjsG4784" transform="translate(115.19999999999999, 0) scale(0.6)" fill="rgba(195, 198, 203, 0.95)"></use><use xlink:href="#SvgjsG4772" transform="translate(115.19999999999999, 38.4) scale(0.6)" fill="rgba(195, 198, 203, 0.95)"></use><use xlink:href="#SvgjsG4784" transform="translate(115.19999999999999, 76.8) scale(0.6)" fill="rgba(195, 198, 203, 0.95)"></use><use xlink:href="#SvgjsG4777" transform="translate(115.19999999999999, 115.19999999999999) scale(0.6)" fill="rgba(195, 198, 203, 0.95)"></use><use xlink:href="#SvgjsG4779" transform="translate(115.19999999999999, 153.6) scale(0.6)" fill="rgba(195, 198, 203, 0.95)"></use><use xlink:href="#SvgjsG4785" transform="translate(115.19999999999999, 192) scale(0.6)" fill="rgba(195, 198, 203, 0.95)"></use><use xlink:href="#SvgjsG4770" transform="translate(115.19999999999999, 230.39999999999998) scale(0.6)" fill="rgba(195, 198, 203, 0.95)"></use><use xlink:href="#SvgjsG4771" transform="translate(115.19999999999999, 268.8) scale(0.6)" fill="rgba(195, 198, 203, 0.95)"></use><use xlink:href="#SvgjsG4786" transform="translate(115.19999999999999, 307.2) scale(0.6)" fill="rgba(195, 198, 203, 0.95)"></use><use xlink:href="#SvgjsG4776" transform="translate(115.19999999999999, 345.59999999999997) scale(0.6)" fill="rgba(195, 198, 203, 0.95)"></use><use xlink:href="#SvgjsG4777" transform="translate(153.6, 0) scale(0.6)" fill="rgba(195, 198, 203, 0.95)"></use><use xlink:href="#SvgjsG4787" transform="translate(153.6, 38.4) scale(0.6)" fill="rgba(195, 198, 203, 0.95)"></use><use xlink:href="#SvgjsG4786" transform="translate(153.6, 76.8) scale(0.6)" fill="rgba(195, 198, 203, 0.95)"></use><use xlink:href="#SvgjsG4771" transform="translate(153.6, 115.19999999999999) scale(0.6)" fill="rgba(195, 198, 203, 0.95)"></use><use xlink:href="#SvgjsG4788" transform="translate(153.6, 153.6) scale(0.6)" fill="rgba(195, 198, 203, 0.95)"></use><use xlink:href="#SvgjsG4785" transform="translate(153.6, 192) scale(0.6)" fill="rgba(195, 198, 203, 0.95)"></use><use xlink:href="#SvgjsG4787" transform="translate(153.6, 230.39999999999998) scale(0.6)" fill="rgba(195, 198, 203, 0.95)"></use><use xlink:href="#SvgjsG4770" transform="translate(153.6, 268.8) scale(0.6)" fill="rgba(195, 198, 203, 0.95)"></use><use xlink:href="#SvgjsG4774" transform="translate(153.6, 307.2) scale(0.6)" fill="rgba(195, 198, 203, 0.95)"></use><use xlink:href="#SvgjsG4788" transform="translate(153.6, 345.59999999999997) scale(0.6)" fill="rgba(195, 198, 203, 0.95)"></use><use xlink:href="#SvgjsG4784" transform="translate(192, 0) scale(0.6)" fill="rgba(195, 198, 203, 0.95)"></use><use xlink:href="#SvgjsG4777" transform="translate(192, 38.4) scale(0.6)" fill="rgba(195, 198, 203, 0.95)"></use><use xlink:href="#SvgjsG4781" transform="translate(192, 76.8) scale(0.6)" fill="rgba(195, 198, 203, 0.95)"></use><use xlink:href="#SvgjsG4771" transform="translate(192, 115.19999999999999) scale(0.6)" fill="rgba(195, 198, 203, 0.95)"></use><use xlink:href="#SvgjsG4780" transform="translate(192, 153.6) scale(0.6)" fill="rgba(195, 198, 203, 0.95)"></use><use xlink:href="#SvgjsG4777" transform="translate(192, 192) scale(0.6)" fill="rgba(195, 198, 203, 0.95)"></use><use xlink:href="#SvgjsG4773" transform="translate(192, 230.39999999999998) scale(0.6)" fill="rgba(195, 198, 203, 0.95)"></use><use xlink:href="#SvgjsG4777" transform="translate(192, 268.8) scale(0.6)" fill="rgba(195, 198, 203, 0.95)"></use><use xlink:href="#SvgjsG4785" transform="translate(192, 307.2) scale(0.6)" fill="rgba(195, 198, 203, 0.95)"></use><use xlink:href="#SvgjsG4777" transform="translate(192, 345.59999999999997) scale(0.6)" fill="rgba(195, 198, 203, 0.95)"></use><use xlink:href="#SvgjsG4775" transform="translate(230.39999999999998, 0) scale(0.6)" fill="rgba(195, 198, 203, 0.95)"></use><use xlink:href="#SvgjsG4784" transform="translate(230.39999999999998, 38.4) scale(0.6)" fill="rgba(195, 198, 203, 0.95)"></use><use xlink:href="#SvgjsG4778" transform="translate(230.39999999999998, 76.8) scale(0.6)" fill="rgba(195, 198, 203, 0.95)"></use><use xlink:href="#SvgjsG4774" transform="translate(230.39999999999998, 115.19999999999999) scale(0.6)" fill="rgba(195, 198, 203, 0.95)"></use><use xlink:href="#SvgjsG4782" transform="translate(230.39999999999998, 153.6) scale(0.6)" fill="rgba(195, 198, 203, 0.95)"></use><use xlink:href="#SvgjsG4784" transform="translate(230.39999999999998, 192) scale(0.6)" fill="rgba(195, 198, 203, 0.95)"></use><use xlink:href="#SvgjsG4788" transform="translate(230.39999999999998, 230.39999999999998) scale(0.6)" fill="rgba(195, 198, 203, 0.95)"></use><use xlink:href="#SvgjsG4771" transform="translate(230.39999999999998, 268.8) scale(0.6)" fill="rgba(195, 198, 203, 0.95)"></use><use xlink:href="#SvgjsG4777" transform="translate(230.39999999999998, 307.2) scale(0.6)" fill="rgba(195, 198, 203, 0.95)"></use><use xlink:href="#SvgjsG4785" transform="translate(230.39999999999998, 345.59999999999997) scale(0.6)" fill="rgba(195, 198, 203, 0.95)"></use><use xlink:href="#SvgjsG4774" transform="translate(268.8, 0) scale(0.6)" fill="rgba(195, 198, 203, 0.95)"></use><use xlink:href="#SvgjsG4776" transform="translate(268.8, 38.4) scale(0.6)" fill="rgba(195, 198, 203, 0.95)"></use><use xlink:href="#SvgjsG4770" transform="translate(268.8, 76.8) scale(0.6)" fill="rgba(195, 198, 203, 0.95)"></use><use xlink:href="#SvgjsG4779" transform="translate(268.8, 115.19999999999999) scale(0.6)" fill="rgba(195, 198, 203, 0.95)"></use><use xlink:href="#SvgjsG4779" transform="translate(268.8, 153.6) scale(0.6)" fill="rgba(195, 198, 203, 0.95)"></use><use xlink:href="#SvgjsG4778" transform="translate(268.8, 192) scale(0.6)" fill="rgba(195, 198, 203, 0.95)"></use><use xlink:href="#SvgjsG4787" transform="translate(268.8, 230.39999999999998) scale(0.6)" fill="rgba(195, 198, 203, 0.95)"></use><use xlink:href="#SvgjsG4780" transform="translate(268.8, 268.8) scale(0.6)" fill="rgba(195, 198, 203, 0.95)"></use><use xlink:href="#SvgjsG4780" transform="translate(268.8, 307.2) scale(0.6)" fill="rgba(195, 198, 203, 0.95)"></use><use xlink:href="#SvgjsG4781" transform="translate(268.8, 345.59999999999997) scale(0.6)" fill="rgba(195, 198, 203, 0.95)"></use><use xlink:href="#SvgjsG4780" transform="translate(307.2, 0) scale(0.6)" fill="rgba(195, 198, 203, 0.95)"></use><use xlink:href="#SvgjsG4778" transform="translate(307.2, 38.4) scale(0.6)" fill="rgba(195, 198, 203, 0.95)"></use><use xlink:href="#SvgjsG4772" transform="translate(307.2, 76.8) scale(0.6)" fill="rgba(195, 198, 203, 0.95)"></use><use xlink:href="#SvgjsG4782" transform="translate(307.2, 115.19999999999999) scale(0.6)" fill="rgba(195, 198, 203, 0.95)"></use><use xlink:href="#SvgjsG4788" transform="translate(307.2, 153.6) scale(0.6)" fill="rgba(195, 198, 203, 0.95)"></use><use xlink:href="#SvgjsG4780" transform="translate(307.2, 192) scale(0.6)" fill="rgba(195, 198, 203, 0.95)"></use><use xlink:href="#SvgjsG4775" transform="translate(307.2, 230.39999999999998) scale(0.6)" fill="rgba(195, 198, 203, 0.95)"></use><use xlink:href="#SvgjsG4775" transform="translate(307.2, 268.8) scale(0.6)" fill="rgba(195, 198, 203, 0.95)"></use><use xlink:href="#SvgjsG4771" transform="translate(307.2, 307.2) scale(0.6)" fill="rgba(195, 198, 203, 0.95)"></use><use xlink:href="#SvgjsG4786" transform="translate(307.2, 345.59999999999997) scale(0.6)" fill="rgba(195, 198, 203, 0.95)"></use><use xlink:href="#SvgjsG4770" transform="translate(345.59999999999997, 0) scale(0.6)" fill="rgba(195, 198, 203, 0.95)"></use><use xlink:href="#SvgjsG4769" transform="translate(345.59999999999997, 38.4) scale(0.6)" fill="rgba(195, 198, 203, 0.95)"></use><use xlink:href="#SvgjsG4782" transform="translate(345.59999999999997, 76.8) scale(0.6)" fill="rgba(195, 198, 203, 0.95)"></use><use xlink:href="#SvgjsG4780" transform="translate(345.59999999999997, 115.19999999999999) scale(0.6)" fill="rgba(195, 198, 203, 0.95)"></use><use xlink:href="#SvgjsG4780" transform="translate(345.59999999999997, 153.6) scale(0.6)" fill="rgba(195, 198, 203, 0.95)"></use><use xlink:href="#SvgjsG4780" transform="translate(345.59999999999997, 192) scale(0.6)" fill="rgba(195, 198, 203, 0.95)"></use><use xlink:href="#SvgjsG4785" transform="translate(345.59999999999997, 230.39999999999998) scale(0.6)" fill="rgba(195, 198, 203, 0.95)"></use><use xlink:href="#SvgjsG4779" transform="translate(345.59999999999997, 268.8) scale(0.6)" fill="rgba(195, 198, 203, 0.95)"></use><use xlink:href="#SvgjsG4775" transform="translate(345.59999999999997, 307.2) scale(0.6)" fill="rgba(195, 198, 203, 0.95)"></use><use xlink:href="#SvgjsG4773" transform="translate(345.59999999999997, 345.59999999999997) scale(0.6)" fill="rgba(195, 198, 203, 0.95)"></use></g></defs></svg>